<svg xmlns="http://www.w3.org/2000/svg" width="86.056" height="19.896" viewBox="0 0 86.056 19.896"><defs><style>.a{fill:#96d226;}.b{fill:#32cbcb;}.c{fill:#fff;}</style></defs><g transform="translate(-70.6 -1531.474)"><g transform="translate(70.6 1531.474)"><g transform="translate(0 0)"><path class="a" d="M100.664,1596.489l1.808,1.808a.845.845,0,0,1,0,1.194l-1.808,1.808a.844.844,0,0,0,0,1.194l.338.338a.844.844,0,0,0,1.194,0l2.405-2.405.935-.935a.845.845,0,0,0,0-1.194l-.935-.935-2.405-2.405a.844.844,0,0,0-1.194,0l-.338.338A.845.845,0,0,0,100.664,1596.489Z" transform="translate(-97.683 -1588.913)"/><path class="a" d="M135.6,1561.552l1.808,1.808a.845.845,0,0,0,1.194,0l1.808-1.808a.845.845,0,0,1,1.194,0l.338.338a.845.845,0,0,1,0,1.194l-2.405,2.4-.935.935a.845.845,0,0,1-1.194,0l-.935-.935-2.405-2.4a.844.844,0,0,1,0-1.194l.338-.338A.845.845,0,0,1,135.6,1561.552Z" transform="translate(-128.026 -1558.57)"/><path class="a" d="M205.083,1601.226l-1.808-1.808a.845.845,0,0,1,0-1.194l1.808-1.808a.845.845,0,0,0,0-1.194l-.338-.338a.845.845,0,0,0-1.194,0l-2.405,2.4-.935.936a.845.845,0,0,0,0,1.194l.935.935,2.405,2.405a.845.845,0,0,0,1.194,0l.338-.338A.845.845,0,0,0,205.083,1601.226Z" transform="translate(-188.105 -1588.847)"/><path class="b" d="M140.4,1665.913l-1.808-1.808a.844.844,0,0,0-1.194,0l-1.808,1.808a.844.844,0,0,1-1.194,0l-.338-.338a.845.845,0,0,1,0-1.194l2.405-2.405.935-.935a.844.844,0,0,1,1.194,0l.935.935,2.405,2.405a.845.845,0,0,1,0,1.194l-.338.338A.845.845,0,0,1,140.4,1665.913Z" transform="translate(-128.013 -1648.939)"/><path class="a" d="M87.587,1534.388a9.962,9.962,0,1,0,2.91,7.036A9.885,9.885,0,0,0,87.587,1534.388Zm-.623,13.449a9.08,9.08,0,1,1,2.652-6.413A9.08,9.08,0,0,1,86.963,1547.837Z" transform="translate(-70.6 -1531.474)"/></g><g transform="translate(24.602 5.774)"><path class="c" d="M343.616,1602.75q-.611.059-1.144.059a5.187,5.187,0,0,1-2.277-.38,1.885,1.885,0,0,1-.972-1.234,10.266,10.266,0,0,1-.237-2.562,9.911,9.911,0,0,1,.243-2.538,1.946,1.946,0,0,1,.978-1.245,5.016,5.016,0,0,1,2.265-.391,10.329,10.329,0,0,1,1.127.065,8,8,0,0,1,.984.16v1.565q-1.21-.119-1.6-.119a4.082,4.082,0,0,0-1.34.148.787.787,0,0,0-.468.617,15.033,15.033,0,0,0,0,3.475.786.786,0,0,0,.468.617,4.075,4.075,0,0,0,1.34.148,10.846,10.846,0,0,0,1.648-.119v1.589A9.913,9.913,0,0,1,343.616,1602.75Z" transform="translate(-338.985 -1594.46)"/><path class="c" d="M419.552,1603.654l-.486-1.542H416.16l-.462,1.542h-2.063l2.609-8.159h2.8l2.609,8.159Zm-1.921-6.333h-.059l-.937,3.119h1.945Z" transform="translate(-406.791 -1595.4)"/><path class="c" d="M518.037,1603.654v-8.159H520.1v6.4h3.238v1.755Z" transform="translate(-501.624 -1595.4)"/><path class="c" d="M594.5,1603.654v-8.159h2.063v8.159Z" transform="translate(-571.076 -1595.4)"/><path class="c" d="M646.7,1603.654l-2.823-4.661h-.059v4.661h-1.969v-8.159h2.123l2.621,4.234h.059v-4.234h1.98v8.159Z" transform="translate(-614.086 -1595.4)"/><path class="c" d="M740.948,1595.495h2.882a6.564,6.564,0,0,1,2.573.362,1.648,1.648,0,0,1,.961,1.139,17.625,17.625,0,0,1,0,5.159,1.647,1.647,0,0,1-.961,1.138,6.556,6.556,0,0,1-2.573.362h-2.882Zm2.834,6.487a4.169,4.169,0,0,0,1.215-.113.64.64,0,0,0,.38-.545,12.426,12.426,0,0,0,.077-1.749,11.546,11.546,0,0,0-.083-1.743.658.658,0,0,0-.385-.552,4.12,4.12,0,0,0-1.2-.113H743v4.815Z" transform="translate(-704.102 -1595.4)"/><path class="c" d="M840.6,1603.654l-1.067-2.858H838.1v2.858h-2.063v-8.159h3.914a3.644,3.644,0,0,1,1.7.314,1.526,1.526,0,0,1,.759.866,4.81,4.81,0,0,1,.184,1.477,4.509,4.509,0,0,1-.219,1.482,1.516,1.516,0,0,1-.872.913l1.257,3.107Zm-.528-4.566a.484.484,0,0,0,.35-.267,1.849,1.849,0,0,0,.083-.658,2.187,2.187,0,0,0-.071-.67.448.448,0,0,0-.338-.267,3.986,3.986,0,0,0-.907-.071H838.1v2h1.067A3.976,3.976,0,0,0,840.077,1599.088Z" transform="translate(-790.476 -1595.4)"/><path class="c" d="M927.86,1603.654l-.486-1.542h-2.906l-.462,1.542h-2.063l2.609-8.159h2.8l2.609,8.159Zm-1.921-6.333h-.059l-.937,3.119h1.945Z" transform="translate(-868.505 -1595.4)"/></g></g></g></svg>